<svg id="Layer_1" data-name="Layer 1" xmlns="http://www.w3.org/2000/svg" viewBox="0 0 142 98"><defs><style>.cls-1{fill:#f5c553;}</style></defs><path class="cls-1" d="M80,60q0-15.6,4.8-26.8A53.74,53.74,0,0,1,97.2,14.4,43.59,43.59,0,0,1,114.4,3.6,57.66,57.66,0,0,1,134,0V14q-10.4,0-19.6,7.2Q105.6,28,104,40c.8-.27,1.73-.53,2.8-.8.8-.27,1.73-.53,2.8-.8A22.2,22.2,0,0,1,114,38a25.42,25.42,0,0,1,20,9.2A29.92,29.92,0,0,1,142,68a30.51,30.51,0,0,1-8.4,21.2q-8,8.8-21.6,8.8Q96.81,98,88.4,86.8A44.5,44.5,0,0,1,80,60ZM0,60Q0,44.4,4.8,33.2A53.74,53.74,0,0,1,17.2,14.4,43.59,43.59,0,0,1,34.4,3.6,57.66,57.66,0,0,1,54,0V14q-10.39,0-19.6,7.2Q25.6,28,24,40c.8-.27,1.73-.53,2.8-.8.8-.27,1.73-.53,2.8-.8A22.2,22.2,0,0,1,34,38a25.42,25.42,0,0,1,20,9.2A29.92,29.92,0,0,1,62,68a30.51,30.51,0,0,1-8.4,21.2Q45.61,98,32,98,16.81,98,8.4,86.8A44.5,44.5,0,0,1,0,60Z"/></svg>
