<svg id="Layer_1" data-name="Layer 1" xmlns="http://www.w3.org/2000/svg" viewBox="0 0 142 98"><defs><style>.cls-1{fill:#f5c553;}</style></defs><path class="cls-1" d="M62,38q0,15.6-4.8,26.8A53.74,53.74,0,0,1,44.8,83.6,43.59,43.59,0,0,1,27.6,94.4,57.66,57.66,0,0,1,8,98V84q10.4,0,19.6-7.2Q36.41,70,38,58c-.8.27-1.73.53-2.8.8-.8.27-1.73.53-2.8.8A22.2,22.2,0,0,1,28,60,25.42,25.42,0,0,1,8,50.8,29.92,29.92,0,0,1,0,30,30.51,30.51,0,0,1,8.4,8.8Q16.4,0,30,0,45.2,0,53.6,11.2A44.5,44.5,0,0,1,62,38Zm80,0q0,15.6-4.8,26.8a53.74,53.74,0,0,1-12.4,18.8,43.59,43.59,0,0,1-17.2,10.8A57.66,57.66,0,0,1,88,98V84q10.4,0,19.6-7.2Q116.41,70,118,58c-.8.27-1.73.53-2.8.8-.8.27-1.73.53-2.8.8a22.2,22.2,0,0,1-4.4.4,25.42,25.42,0,0,1-20-9.2A29.92,29.92,0,0,1,80,30,30.51,30.51,0,0,1,88.4,8.8Q96.4,0,110,0q15.19,0,23.6,11.2A44.5,44.5,0,0,1,142,38Z"/></svg>